<svg width="16" height="16" viewBox="0 0 11 11" fill="none" xmlns="http://www.w3.org/2000/svg">
<path d="M10.7071 0.292786C10.5196 0.105315 10.2652 0 10.0001 0C9.73492 0 9.48061 0.105315 9.29308 0.292786L6.00008 3.58579L2.70708 0.292786C2.51848 0.110628 2.26588 0.00983408 2.00368 0.0121125C1.74148 0.0143909 1.49067 0.11956 1.30526 0.304968C1.11985 0.490376 1.01469 0.741188 1.01241 1.00339C1.01013 1.26558 1.11092 1.51818 1.29308 1.70679L4.58608 4.99979L1.29308 8.29279C1.19757 8.38503 1.12139 8.49538 1.06898 8.61738C1.01657 8.73939 0.988985 8.87061 0.987831 9.00339C0.986677 9.13616 1.01198 9.26784 1.06226 9.39074C1.11254 9.51364 1.18679 9.62529 1.28069 9.71918C1.37458 9.81307 1.48623 9.88733 1.60913 9.93761C1.73202 9.98789 1.8637 10.0132 1.99648 10.012C2.12926 10.0109 2.26048 9.9833 2.38249 9.93089C2.50449 9.87848 2.61483 9.8023 2.70708 9.70679L6.00008 6.41379L9.29308 9.70679C9.48168 9.88894 9.73429 9.98974 9.99648 9.98746C10.2587 9.98518 10.5095 9.88001 10.6949 9.6946C10.8803 9.5092 10.9855 9.25838 10.9878 8.99619C10.99 8.73399 10.8892 8.48139 10.7071 8.29279L7.41408 4.99979L10.7071 1.70679C10.8946 1.51926 10.9999 1.26495 10.9999 0.999786C10.9999 0.734622 10.8946 0.480314 10.7071 0.292786Z" fill="#2E2E38"/>
</svg>
