<svg width="18" height="16" viewBox="0 0 18 16" fill="none" xmlns="http://www.w3.org/2000/svg">
<path d="M7.00008 15.9998C6.73489 15.9998 6.48057 15.8944 6.29308 15.7068L1.29308 10.7068C1.19757 10.6146 1.12139 10.5042 1.06898 10.3822C1.01657 10.2602 0.988985 10.129 0.987831 9.99624C0.986677 9.86346 1.01198 9.73178 1.06226 9.60888C1.11254 9.48599 1.18679 9.37434 1.28069 9.28044C1.37458 9.18655 1.48623 9.1123 1.60913 9.06202C1.73202 9.01174 1.8637 8.98643 1.99648 8.98759C2.12926 8.98874 2.26048 9.01633 2.38249 9.06874C2.50449 9.12115 2.61483 9.19733 2.70708 9.29284L6.86008 13.4448L15.1781 1.43084C15.2513 1.31948 15.3461 1.22388 15.4569 1.14969C15.5676 1.07549 15.6921 1.02418 15.823 0.998786C15.9538 0.973389 16.0884 0.974411 16.2189 1.00179C16.3494 1.02918 16.473 1.08237 16.5826 1.15824C16.6923 1.23411 16.7856 1.33113 16.8572 1.4436C16.9287 1.55606 16.9771 1.6817 16.9994 1.81312C17.0217 1.94455 17.0175 2.07911 16.9871 2.20889C16.9566 2.33867 16.9005 2.46105 16.8221 2.56884L7.82208 15.5688C7.73919 15.69 7.63063 15.7914 7.50412 15.8659C7.37761 15.9404 7.23625 15.9861 7.09008 15.9998C7.06008 15.9998 7.03008 15.9998 7.00008 15.9998Z" fill="#2E2E38"/>
</svg>
