<svg width="17" height="15" viewBox="0 0 17 15" fill="none" xmlns="http://www.w3.org/2000/svg">
<path d="M15.8001 12.5263L9.4831 0.880306C9.3273 0.591371 9.08972 0.354828 8.8001 0.200306C8.40662 -0.0102628 7.94592 -0.0569536 7.51819 0.0703896C7.09047 0.197733 6.73033 0.488809 6.5161 0.880306L0.200098 12.5263C0.0619904 12.7826 -0.0070628 13.0704 -0.000276352 13.3614C0.0065101 13.6525 0.0889027 13.9368 0.238805 14.1863C0.388708 14.4359 0.600962 14.6422 0.854712 14.7849C1.10846 14.9276 1.39497 15.0018 1.6861 15.0003H14.3141C14.5931 15.0003 14.8679 14.9316 15.1141 14.8003C15.3092 14.6968 15.4818 14.5556 15.622 14.3851C15.7623 14.2145 15.8674 14.0178 15.9312 13.8064C15.9951 13.595 16.0165 13.373 15.9942 13.1533C15.9718 12.9336 15.9062 12.7205 15.8011 12.5263H15.8001ZM8.0001 13.0003C7.80232 13.0003 7.60898 12.9417 7.44453 12.8318C7.28008 12.7219 7.15191 12.5657 7.07622 12.383C7.00053 12.2003 6.98073 11.9992 7.01931 11.8052C7.0579 11.6112 7.15314 11.4331 7.29299 11.2932C7.43284 11.1533 7.61103 11.0581 7.80501 11.0195C7.99899 10.9809 8.20006 11.0007 8.38278 11.0764C8.56551 11.1521 8.72169 11.2803 8.83157 11.4447C8.94145 11.6092 9.0001 11.8025 9.0001 12.0003C9.0001 12.2655 8.89474 12.5199 8.7072 12.7074C8.51967 12.8949 8.26531 13.0003 8.0001 13.0003ZM9.0001 9.50031C9.0001 9.63291 8.94742 9.76009 8.85365 9.85386C8.75988 9.94763 8.63271 10.0003 8.5001 10.0003H7.5001C7.36749 10.0003 7.24031 9.94763 7.14654 9.85386C7.05278 9.76009 7.0001 9.63291 7.0001 9.50031V5.50031C7.0001 5.3677 7.05278 5.24052 7.14654 5.14675C7.24031 5.05298 7.36749 5.00031 7.5001 5.00031H8.5001C8.63271 5.00031 8.75988 5.05298 8.85365 5.14675C8.94742 5.24052 9.0001 5.3677 9.0001 5.50031V9.50031Z" fill="#2E2E38"/>
</svg>
